<?xml version="1.0" encoding="UTF-8" standalone="no"?>
<!-- Created with Inkscape (http://www.inkscape.org/) -->

<svg
   version="1.1"
   id="svg132"
   width="195.84"
   height="148.16"
   viewBox="0 0 195.84 148.16"
   sodipodi:docname="kapal.svg"
   inkscape:export-filename="istockphoto-916257632-612x612.svg"
   inkscape:export-xdpi="245.09804"
   inkscape:export-ydpi="245.09804"
   inkscape:version="1.2.2 (732a01da63, 2022-12-09)"
   xmlns:inkscape="http://www.inkscape.org/namespaces/inkscape"
   xmlns:sodipodi="http://sodipodi.sourceforge.net/DTD/sodipodi-0.dtd"
   xmlns="http://www.w3.org/2000/svg"
   xmlns:svg="http://www.w3.org/2000/svg">
  <defs
     id="defs136">
    <linearGradient
       id="linearGradient13874"
       inkscape:swatch="solid">
      <stop
         style="stop-color:#c38154;stop-opacity:1;"
         offset="0"
         id="stop13872" />
    </linearGradient>
  </defs>
  <sodipodi:namedview
     id="namedview134"
     pagecolor="#ffffff"
     bordercolor="#000000"
     borderopacity="0.25"
     inkscape:showpageshadow="2"
     inkscape:pageopacity="0.0"
     inkscape:pagecheckerboard="0"
     inkscape:deskcolor="#d1d1d1"
     showgrid="false"
     inkscape:zoom="5.0693318"
     inkscape:cx="88.078669"
     inkscape:cy="271.33754"
     inkscape:window-width="1920"
     inkscape:window-height="991"
     inkscape:window-x="-9"
     inkscape:window-y="-9"
     inkscape:window-maximized="1"
     inkscape:current-layer="g138" />
  <g
     inkscape:groupmode="layer"
     inkscape:label="Image"
     id="g138">
    <g
       id="g21321"
       transform="translate(10.652291,159.78437)">
      <path
         style="fill:#e4ad45;fill-opacity:1;stroke-width:1.527"
         d="m 29.984228,137.2962 3.353499,-6.50973 50.697017,-33.534994 11.244085,-4.142558 H 108.2983 l 63.12469,41.622842 0.39453,5.52341 H 32.745933 Z"
         id="path15503" />
      <path
         style="fill:#884a39;fill-opacity:1;stroke-width:1.527"
         d="m 32.351403,135.52082 7.101528,-5.32615 22.093642,-17.16202 15.781172,-9.4687 15.978438,-7.496062 h 11.835877 l 15.58391,6.707002 37.08576,25.24987 7.49605,6.90426 9.07418,0.19727 -13.80853,-13.21674 -14.40032,-11.44134 -24.06629,-14.597587 -9.27144,-8.087851 -9.27143,-4.537087 -12.033149,-0.394529 -10.652292,6.312469 -4.339822,6.115204 -16.767496,8.876911 -23.869024,15.78117 -15.978437,14.79485 z"
         id="path3209" />
      <path
         style="display:inline;fill:#c38154;fill-opacity:1;stroke-width:1.527"
         d="m 17.600207,134.74633 15.48511,-12.99984 31.734917,-20.26446 11.8528,-6.6911 6.882271,-8.985187 9.941059,-3.249962 h 10.705756 l 9.55871,4.205833 6.30875,8.602839 26.76439,16.249807 16.2498,12.23514 14.14689,11.27928 8.41167,-1.91174 -33.07314,-23.32325 -29.24965,-15.867457 -6.30875,-8.794013 -11.47045,-4.014658 -12.235151,0.191174 -11.8528,4.205833 -6.308748,8.22049 -8.794014,4.588181 -31.734917,18.35272 -24.087948,18.16155 z"
         id="path363" />
      <path
         style="display:inline;fill:#c38154;fill-opacity:1;stroke-width:1.527"
         d="m 22.76191,134.93751 14.338065,-12.6175 3.441136,7.26462 2.867613,-1.72057 -2.676439,-8.02931 18.735071,-12.99984 2.294091,6.69109 2.485264,-1.33822 -2.29409,-6.88227 14.146891,-8.22049 1.529393,6.30875 2.102916,-0.95587 -0.955871,-5.735228 6.308749,-9.367536 8.602839,-2.867613 10.705752,0.191175 8.98519,4.397006 6.49992,7.455794 -0.38234,6.117572 2.67643,0.7647 0.57353,-5.352879 13.95571,8.220489 -1.72056,6.88227 2.48526,0.38235 2.10292,-4.58818 18.54389,12.80867 -3.24996,6.11757 3.82349,2.67644 1.91174,-5.35288 12.99984,9.74989 2.67644,-0.38235 3.24996,-1.72057 -33.26431,-24.47029 -20.45564,-11.27928 -7.26462,-6.117574 -3.63231,-4.397006 -9.17636,-4.205833 -12.808669,-0.191174 -11.088104,4.014658 -5.9264,8.602839 -41.867149,23.7056 -17.970375,16.82333 z"
         id="path3205" />
      <path
         style="display:inline;fill:#eaa26d;fill-opacity:1;stroke-width:1.527"
         d="m 195.88381,134.73176 -11.24409,-1.38086 -19.5292,1.77539 H -0.19726466 l 0.39452931,13.61126 195.88380535,0.98632 z"
         id="path3325" />
      <path
         style="fill:#db9066;fill-opacity:1;stroke-width:1.527"
         d="m 92.911654,81.667568 0.591794,-28.80064 5.917939,-4.537087 7.101523,3.550764 0.19727,29.984228 z"
         id="path13932" />
    </g>
  </g>
</svg>
